<?xml version="1.0" encoding="utf-8"?><svg xmlns="http://www.w3.org/2000/svg" xmlns:xlink="http://www.w3.org/1999/xlink"><symbol viewBox="0 0 41.999 41.999" id="arrow" xmlns="http://www.w3.org/2000/svg"><path d="M36.068 20.176l-29-20A1 1 0 005.5.999v40a1 1 0 001.568.823l29-20a.999.999 0 000-1.646z"/></symbol><symbol viewBox="0 -31 512 512" id="basket" xmlns="http://www.w3.org/2000/svg"><path d="M164.96 300.004h.024c.02 0 .04-.004.059-.004H437a15.003 15.003 0 0014.422-10.879l60-210a15.003 15.003 0 00-2.445-13.152A15.006 15.006 0 00497 60H130.367l-10.722-48.254A15.003 15.003 0 00105 0H15C6.715 0 0 6.715 0 15s6.715 15 15 15h77.969c1.898 8.55 51.312 230.918 54.156 243.71C131.184 280.64 120 296.536 120 315c0 24.812 20.188 45 45 45h272c8.285 0 15-6.715 15-15s-6.715-15-15-15H165c-8.27 0-15-6.73-15-15 0-8.258 6.707-14.977 14.96-14.996zM477.114 90l-51.43 180H177.032l-40-180zM150 405c0 24.813 20.188 45 45 45s45-20.188 45-45-20.188-45-45-45-45 20.188-45 45zm45-15c8.27 0 15 6.73 15 15s-6.73 15-15 15-15-6.73-15-15 6.73-15 15-15zm167 15c0 24.813 20.188 45 45 45s45-20.188 45-45-20.188-45-45-45-45 20.188-45 45zm45-15c8.27 0 15 6.73 15 15s-6.73 15-15 15-15-6.73-15-15 6.73-15 15-15zm0 0"/></symbol><symbol viewBox="0 0 357 357" id="close" xmlns="http://www.w3.org/2000/svg"><path d="M357 35.7L321.3 0 178.5 142.8 35.7 0 0 35.7l142.8 142.8L0 321.3 35.7 357l142.8-142.8L321.3 357l35.7-35.7-142.8-142.8z"/></symbol><symbol viewBox="0 0 496 496" id="customer-service" xmlns="http://www.w3.org/2000/svg"><path d="M402.524 432l-18.52-55.568a56.001 56.001 0 00-43.112-37.384l-53.464-9.728v-4.144c9.304-5.4 17.4-12.624 23.848-21.176h16.152c13.232 0 24-10.768 24-24v-96c0-57.344-46.656-104-104-104s-104 46.656-104 104v56c0 15.424 10.968 28.328 25.512 31.336 4.488 22.992 18.856 42.448 38.488 53.84v4.144l-53.472 9.728a55.99 55.99 0 00-43.104 37.384l-3.2 9.608-27.248-27.248c-3.12-3.12-3.12-8.2 0-11.32l31.6-31.592-59.312-59.312L16.98 292.28C6.404 302.856.58 316.92.58 331.88s5.824 29.016 16.4 39.592l108.12 108.12C135.676 490.168 149.74 496 164.7 496s29.016-5.832 39.344-16.168l38.968-35.704L230.86 432h171.664zm-67.096-152c0 4.416-3.592 8-8 8H320.7a79.46 79.46 0 005.216-16.664c3.424-.712 6.576-2.072 9.512-3.784V280zm-8-26.224v-27.552c4.76 2.776 8 7.88 8 13.776s-3.24 11-8 13.776zm-160 0c-4.76-2.776-8-7.88-8-13.776s3.24-11 8-13.776v27.552zm0-53.776v9.136a31.73 31.73 0 00-8 3.312V184c0-48.52 39.48-88 88-88s88 39.48 88 88v28.448a31.44 31.44 0 00-8-3.312V200h-8c-23.656 0-45.896-9.216-62.632-25.944l-9.368-9.368-9.368 9.368C221.324 190.784 199.084 200 175.428 200h-8zm16 56v-40.304c24.024-1.808 46.424-11.72 64-28.432 17.576 16.712 39.976 26.632 64 28.432V256c0 11.664-3.184 22.576-8.656 32h-55.344v16h42.192c-11.28 9.928-26.024 16-42.192 16-35.288 0-64-28.712-64-64zm88 76.312v.376l-24 24-24-24v-.376c7.584 2.384 15.64 3.688 24 3.688s16.416-1.304 24-3.688zM126.02 381.488a40.014 40.014 0 0130.792-26.712l55.92-10.16 34.696 34.696 34.688-34.688 55.912 10.16a40 40 0 0130.792 26.712L380.332 416H214.86l-31.16-31.16-34.624 31.32c-3.016 3.032-8.288 3.032-11.312 0l-17.472-17.472 5.728-17.2zM52.684 279.192l36.688 36.688-8.688 8.688-36.688-36.688 8.688-8.688zm140.28 189.104c-7.552 7.536-17.6 11.704-28.28 11.704s-20.728-4.168-28.288-11.72L28.276 360.168c-7.552-7.552-11.712-17.6-11.712-28.28 0-10.688 4.16-20.736 11.712-28.288l4.4-4.4 36.688 36.688-.288.288c-9.352 9.36-9.352 24.584 0 33.944l57.368 57.368c4.536 4.528 10.56 7.032 16.976 7.032s12.44-2.496 16.68-6.752l.6-.536 36.856 36.856-4.592 4.208zm16.4-15.04l-36.776-36.776 10.568-9.552 36.712 36.712-10.504 9.616zM471.428 0h-112c-13.232 0-24 10.768-24 24v64c0 13.232 10.768 24 24 24h21.368l-8.272 48.248 77.2-48.248h21.704c13.232 0 24-10.768 24-24V24c0-13.232-10.768-24-24-24zm8 88c0 4.408-3.592 8-8 8h-26.296l-50.808 31.752L399.772 96h-40.344c-4.408 0-8-3.592-8-8V24c0-4.408 3.592-8 8-8h112c4.408 0 8 3.592 8 8v64z"/><path d="M367.428 32h96v16h-96zm0 32h64v16h-64zm80 0h16v16h-16zm-200-40C142.9 24 52.86 96.304 29.452 197.16l-15.16-25.272-13.72 8.232 28.12 46.856 46.856-28.12-8.232-13.72-21.68 13.008C68.308 105.88 151.276 40 247.428 40c21.016 0 41.752 3.12 61.632 9.28L313.796 34c-21.416-6.64-43.744-10-66.368-10zM491.54 177.136l-46.856-28.12-28.112 46.864 13.72 8.232 14-23.336c7.368 21.56 11.136 44.112 11.136 67.224 0 47.576-16.48 94.088-46.392 130.96l12.424 10.08c32.224-39.712 49.968-89.808 49.968-141.04 0-24.472-3.944-48.368-11.632-71.248l23.512 14.104 8.232-13.72z"/></symbol><symbol viewBox="0 0 201.387 201.387" id="delivery" xmlns="http://www.w3.org/2000/svg"><path d="M129.413 24.885C127.389 10.699 115.041 0 100.692 0 91.464 0 82.7 4.453 77.251 11.916a3.413 3.413 0 105.51 4.026c4.171-5.707 10.873-9.115 17.93-9.115 10.974 0 20.415 8.178 21.963 19.021a3.417 3.417 0 003.862 2.898 3.415 3.415 0 002.897-3.861zm49.299 38.211l-10.24-17.067a3.409 3.409 0 00-2.927-1.657h-9.813a3.414 3.414 0 000 6.826h7.881l6.144 10.24H31.626l6.144-10.24h3.615a3.414 3.414 0 000-6.826h-5.547c-1.2 0-2.311.628-2.927 1.657l-10.24 17.067a3.417 3.417 0 002.927 5.171h150.187a3.414 3.414 0 002.927-5.171z"/><path d="M161.698 31.623a3.408 3.408 0 00-2.123-1.524l-46.531-10.883a3.42 3.42 0 00-2.579.423 3.416 3.416 0 00-1.522 2.123l-3.509 15a3.41 3.41 0 002.546 4.099 3.412 3.412 0 004.101-2.546l2.732-11.675 39.883 9.329-6.267 26.795a3.41 3.41 0 003.328 4.189 3.408 3.408 0 003.318-2.635L162.12 34.2a3.4 3.4 0 00-.422-2.577zm-59.201 8.069l-3.11-26.305a3.413 3.413 0 00-3.791-2.99l-57.09 6.748a3.414 3.414 0 00-2.988 3.791l5.185 43.873a3.414 3.414 0 106.78-.801l-4.785-40.486 50.311-5.946 2.708 22.915a3.413 3.413 0 106.78-.799z"/><path d="M129.492 63.556l-6.775-28.174a3.422 3.422 0 00-1.536-2.113 3.434 3.434 0 00-2.581-.406L63.613 46.087a3.414 3.414 0 00-2.521 4.117l3.386 14.082a3.414 3.414 0 006.637-1.596l-2.589-10.764 48.35-11.626 5.977 24.854a3.413 3.413 0 004.118 2.519 3.414 3.414 0 002.521-4.117z"/><path d="M179.197 64.679a3.415 3.415 0 00-3.41-3.238H25.6a3.414 3.414 0 00-3.41 3.238l-6.827 133.12a3.415 3.415 0 003.409 3.588h163.84c.935 0 1.83-.384 2.478-1.062a3.422 3.422 0 00.934-2.526l-6.827-133.12zM22.364 194.56l6.477-126.293h143.701l6.477 126.293H22.364z"/><path d="M126.292 75.093c-5.647 0-10.24 4.593-10.24 10.24s4.593 10.24 10.24 10.24 10.24-4.593 10.24-10.24-4.593-10.24-10.24-10.24zm0 13.654c-1.883 0-3.413-1.531-3.413-3.413s1.531-3.413 3.413-3.413 3.413 1.531 3.413 3.413-1.531 3.413-3.413 3.413zm-51.2-13.654c-5.647 0-10.24 4.593-10.24 10.24s4.593 10.24 10.24 10.24 10.24-4.593 10.24-10.24-4.593-10.24-10.24-10.24zm0 13.654c-1.882 0-3.413-1.531-3.413-3.413s1.531-3.413 3.413-3.413 3.413 1.531 3.413 3.413-1.531 3.413-3.413 3.413z"/><path d="M126.292 85.333h-.263a3.414 3.414 0 00-3.15 4.729v17.457c0 12.233-9.953 22.187-22.187 22.187s-22.187-9.953-22.187-22.187V88.747a3.414 3.414 0 00-6.826 0v18.773c0 15.998 13.015 29.013 29.013 29.013s29.013-13.015 29.013-29.013V88.747a3.415 3.415 0 00-3.413-3.414z"/></symbol><symbol viewBox="0 -192 512 512" id="dots" xmlns="http://www.w3.org/2000/svg"><path d="M320 64c0 35.348-28.652 64-64 64s-64-28.652-64-64 28.652-64 64-64 64 28.652 64 64zm-192 0c0 35.348-28.652 64-64 64S0 99.348 0 64 28.652 0 64 0s64 28.652 64 64zm384 0c0 35.348-28.652 64-64 64s-64-28.652-64-64 28.652-64 64-64 64 28.652 64 64zm0 0"/></symbol><symbol viewBox="0 0 512 512" id="fast-delivery" xmlns="http://www.w3.org/2000/svg"><path d="M503.673 243.579c-5.323-6.344-12.584-10.467-20.908-12.008l-3.91-53.066a8.015 8.015 0 007.818-6.622l1.508-8.551c1.616-9.166-.638-18.214-6.185-24.823-5.54-6.602-13.651-10.239-22.84-10.239h-58.854l2.865-16.245c.813-4.614-.365-9.221-3.231-12.637-2.838-3.382-7.105-5.322-11.707-5.322H98.524c-8.567 0-16.453 6.665-17.954 15.176L54.939 254.609a8.016 8.016 0 0015.789 2.783L96.36 112.025c.169-.957 1.401-1.927 2.163-1.927l288.702.001-25.481 144.51a8.015 8.015 0 006.503 9.286c4.355.767 8.518-2.143 9.286-6.503l1.848-10.479h95.888c6.626.001 12.351 2.476 16.122 6.969 2.595 3.093 4.109 6.943 4.473 11.202h-26.629a8.016 8.016 0 00-7.895 6.625l-3.015 17.102c-1.215 6.89.501 13.717 4.707 18.73 4.148 4.945 10.445 7.78 17.274 7.78h7.548l-6.22 35.273h-21.165c-1.393-7.055-4.442-13.544-9.063-19.049-8.199-9.773-20.265-15.154-33.972-15.154-21.979 0-43.184 14.38-53.111 34.204H361.1l10.403-58.999A8.016 8.016 0 00365 282.31a8.015 8.015 0 00-9.286 6.503l-10.894 61.783H196.418c-1.393-7.055-4.442-13.543-9.063-19.049-8.2-9.773-20.265-15.154-33.973-15.154-21.979 0-43.184 14.38-53.111 34.204l-45.978-.001 3.204-18.17h36.029a8.017 8.017 0 000-16.034H8.017a8.017 8.017 0 000 16.034h33.201l-2.865 16.245c-.813 4.614.365 9.221 3.231 12.637 2.838 3.382 7.105 5.322 11.707 5.322h41.774c-2.173 13.599 1.093 26.41 9.268 36.151 8.2 9.773 20.265 15.154 33.973 15.154 27.284 0 53.387-22.151 58.188-49.38.113-.645.202-1.286.292-1.926h162.331c-2.174 13.598 1.092 26.409 9.268 36.151 8.2 9.773 20.265 15.154 33.973 15.154 27.284 0 53.387-22.151 58.188-49.38.113-.645.202-1.286.292-1.926h27.525a8.016 8.016 0 007.895-6.625l15.078-85.51c2.046-11.607-.675-22.586-7.663-30.914zM382.21 230.883l9.235-52.375h71.336l3.859 52.375h-84.43zm90.181-70.334l-.34 1.926h-77.78l3.204-18.171h61.681c4.367 0 8.117 1.602 10.557 4.511 2.53 3.014 3.482 7.18 2.678 11.734zM180.705 365.773c-3.512 19.923-22.533 36.13-42.399 36.13-8.886 0-16.59-3.348-21.691-9.426-5.248-6.255-7.248-14.749-5.631-23.919 3.513-19.923 22.533-36.13 42.399-36.13 8.886 0 16.59 3.348 21.691 9.427 5.248 6.253 7.248 14.748 5.631 23.918zm264.051 0c-3.513 19.923-22.533 36.13-42.399 36.13-8.886 0-16.59-3.348-21.691-9.427-5.248-6.255-7.248-14.749-5.631-23.919 3.512-19.923 22.533-36.13 42.399-36.13 8.885 0 16.59 3.348 21.691 9.427 5.248 6.254 7.248 14.749 5.631 23.919zm45.925-66.481h-10.375v-.001c-2.139 0-3.865-.71-4.992-2.052-1.169-1.394-1.596-3.397-1.2-5.64l1.848-10.477h17.923l-3.204 18.17z"/><path d="M159.06 355.919c-2.838-3.382-7.105-5.322-11.708-5.322-8.567 0-16.453 6.665-17.954 15.176-.813 4.614.365 9.221 3.231 12.637 2.838 3.382 7.105 5.322 11.707 5.322 8.567 0 16.453-6.666 17.954-15.175.814-4.615-.363-9.221-3.23-12.638zm264.051 0c-2.839-3.382-7.106-5.322-11.707-5.322-8.567 0-16.453 6.665-17.953 15.175-.813 4.615.363 9.221 3.23 12.638 2.838 3.382 7.105 5.322 11.707 5.322 8.567 0 16.453-6.666 17.954-15.175.814-4.615-.364-9.221-3.231-12.638zm-99.737-39.526H221.791a8.017 8.017 0 000 16.034h101.583a8.017 8.017 0 000-16.034zm-144.338-34.204H31.15a8.017 8.017 0 000 16.034h147.886a8.017 8.017 0 000-16.034zm153.091-32.253l-29.68-25.653a8.018 8.018 0 00-10.485 12.131l13.388 11.572H102.077a8.017 8.017 0 000 16.034h198.189l-16.535 10.954a8.015 8.015 0 00-2.256 11.11 8.007 8.007 0 006.69 3.59c1.52 0 3.058-.432 4.42-1.335l38.727-25.653a8.01 8.01 0 003.573-6.172 8.014 8.014 0 00-2.758-6.578z"/></symbol><symbol viewBox="0 0 44 60" id="guarantee" xmlns="http://www.w3.org/2000/svg"><path d="M2.51 27.21c.41 1.53-.65 3.91.44 5.78s3.73 2.2 4.78 3.26a17 17 0 011.69 3l-5.3 15.47a2 2 0 003 2.27l3.32-2.35 1.17 3.89a2 2 0 003.81.08L20.6 43.7a3.58 3.58 0 002.8 0l5.14 14.95a2 2 0 003.81-.08l1.17-3.89L36.84 57a2 2 0 003-2.27l-5.26-15.44a17.84 17.84 0 011.68-3c1.09-1.12 3.74-1.42 4.79-3.29s.05-4.3.44-5.78S44 24.19 44 22s-2.14-3.82-2.51-5.22.65-3.91-.44-5.78-3.73-2.2-4.78-3.26S34.89 4 33 2.94s-4.3 0-5.78-.43S24.2 0 22 0s-3.81 2.13-5.22 2.51c-1.56.41-3.9-.66-5.78.43S8.81 6.66 7.74 7.73 4 9.11 3 11s0 4.3-.44 5.78S0 19.79 0 22s2.13 3.79 2.51 5.21zM13.57 58l-1.17-3.91a2 2 0 00-3.08-1L6 55.41C11.36 39.8 10.9 41 11 41c1.84 1.07 4.3 0 5.78.43a8.26 8.26 0 012 1.22zm21.11-5a2 2 0 00-3.08 1.1L30.43 58l-5.26-15.31a7.61 7.61 0 012-1.21c1.57-.42 3.9.65 5.78-.44.1-.06-.35-1.22 5 14.36zM3.12 19.7c1.43-2 1.63-2.66 1.4-5.25s-.09-2.77 2.24-3.84 2.79-1.54 3.85-3.86S12 4.29 14.46 4.52s3.23 0 5.25-1.4 2.47-1.49 4.58 0 2.71 1.62 5.25 1.4 2.78-.09 3.85 2.23 1.55 2.79 3.85 3.86 2.47 1.34 2.24 3.84 0 3.24 1.4 5.25 1.49 2.47 0 4.58-1.63 2.66-1.4 5.25.09 2.77-2.24 3.85-2.78 1.53-3.85 3.85-1.34 2.46-3.85 2.24-3.23 0-5.25 1.39-2.47 1.49-4.58 0a5.73 5.73 0 00-3.8-1.48c-1.44 0-3.07.41-3.91-.07-1.15-.67-1.46-3.09-2.85-4.47S5.33 33.12 4.68 32s.27-3.4-.24-5.29S2 23.33 2 22a4.66 4.66 0 011.12-2.3z"/><path d="M22 37c8.284 0 15-6.716 15-15S30.284 7 22 7 7 13.716 7 22s6.716 15 15 15zm0-28c7.18 0 13 5.82 13 13s-5.82 13-13 13S9 29.18 9 22A13 13 0 0122 9z"/><path d="M15.05 25.23a1 1 0 00.95-1 6.35 6.35 0 011.92-4.72c1.51-1.5 3.29-1.9 5.48-2.27a11.58 11.58 0 004.25-1.64c1.3 5-1.07 11.2-6 12.84a11.78 11.78 0 01-3.58.59 20.07 20.07 0 016-6.83 1 1 0 00-1.17-1.62 20.79 20.79 0 00-7.31 9 1 1 0 00.84 1.33c5.23.56 9.93-1.56 12.26-6.6a13.91 13.91 0 00.42-10.69 1 1 0 00-1.51-.44 10.48 10.48 0 01-4.55 2.05c-2.45.41-4.63.91-6.56 2.82A8.36 8.36 0 0014 24.27a1 1 0 001.05.96z"/></symbol><symbol viewBox="0 0 512 512" id="location" xmlns="http://www.w3.org/2000/svg"><path d="M256 0C156.748 0 76 80.748 76 180c0 33.534 9.289 66.26 26.869 94.652l142.885 230.257A15 15 0 00258.499 512h.119a14.997 14.997 0 0012.75-7.292L410.611 272.22C427.221 244.428 436 212.539 436 180 436 80.748 355.252 0 256 0zm128.866 256.818L258.272 468.186l-129.905-209.34C113.734 235.214 105.8 207.95 105.8 180c0-82.71 67.49-150.2 150.2-150.2S406.1 97.29 406.1 180c0 27.121-7.411 53.688-21.234 76.818z"/><path d="M256 90c-49.626 0-90 40.374-90 90 0 49.309 39.717 90 90 90 50.903 0 90-41.233 90-90 0-49.626-40.374-90-90-90zm0 150.2c-33.257 0-60.2-27.033-60.2-60.2 0-33.084 27.116-60.2 60.2-60.2s60.1 27.116 60.1 60.2c0 32.683-26.316 60.2-60.1 60.2z"/></symbol><symbol viewBox="0 0 512.002 512.002" id="map" xmlns="http://www.w3.org/2000/svg"><path d="M511.89 475.873l-29.997-165.398a7.514 7.514 0 10-14.788 2.681l12.683 69.933-97.782-113.58 65.766-14.678 9.738 5.421 4.228 23.316a7.516 7.516 0 0014.789-2.681l-4.864-26.814a7.513 7.513 0 00-3.738-5.225l-15.343-8.541h-.001l-48.488-26.991h-.001L366.68 192.49l-.002-.001-.008-.005a7.458 7.458 0 00-.888-.417c-.095-.037-.192-.062-.289-.095a7.714 7.714 0 00-.638-.2c-.122-.031-.245-.049-.369-.073a7.685 7.685 0 00-.582-.099c-.132-.016-.263-.021-.396-.029a7.671 7.671 0 00-.567-.02c-.135.001-.269.011-.404.019a6.96 6.96 0 00-.962.125 7.88 7.88 0 00-.944.248 7.734 7.734 0 00-.517.198c-.132.056-.263.111-.394.175-.057.028-.116.047-.172.076l-17.168 8.949c12.772-23.815 19.224-46.88 19.224-68.946 0-57.965-47.158-105.123-105.123-105.123S151.364 74.43 151.364 132.395c0 22.28 6.572 45.579 19.594 69.64l-18.499-9.643c-.057-.03-.118-.05-.176-.078-.126-.062-.256-.116-.384-.17a7.765 7.765 0 00-.525-.201 7.878 7.878 0 00-1.347-.318 7.285 7.285 0 00-.551-.054c-.138-.009-.276-.018-.413-.02a7.801 7.801 0 00-.551.019c-.138.009-.276.014-.414.031-.187.022-.372.059-.557.095-.131.026-.263.045-.393.078-.205.052-.406.121-.607.19-.105.036-.212.064-.317.105a7.57 7.57 0 00-.885.416l-.008.005-.002.001-101.243 56.357a7.507 7.507 0 00-3.738 5.225L11.831 411.308a7.515 7.515 0 006.054 8.735 7.512 7.512 0 008.735-6.054l8.555-47.171 97.261-51.414-7.822 100.994-107.157 48.115 3.771-20.8a7.515 7.515 0 00-14.788-2.681L.121 475.874a7.515 7.515 0 0010.471 8.196l121.168-54.405 121.117 54.382.009.004.041.018c.068.031.139.052.209.081a7.571 7.571 0 00.668.242c.072.022.144.041.216.061a6.512 6.512 0 00.754.163c.075.012.149.03.225.04l.153.02c.251.029.505.044.757.047.032 0 .064.006.096.006l.048-.003c.304-.002.606-.027.909-.066.037-.005.075-.003.113-.009.057-.008.113-.027.171-.036.235-.039.47-.09.702-.153.064-.017.129-.027.193-.045l.02-.004c.021-.006.04-.017.061-.024.292-.09.579-.193.862-.32l121.164-54.405 121.167 54.404c.117.052.237.091.357.137.118.046.234.097.355.137.157.052.318.091.478.132.099.026.195.058.296.079.193.042.388.069.583.096.07.009.138.025.208.033.267.029.534.044.801.044h.003c.365 0 .73-.037 1.094-.09a7.343 7.343 0 001.319-.31c.022-.008.044-.019.066-.026.232-.081.463-.17.689-.277.066-.031.123-.075.188-.108.189-.095.371-.204.553-.317.182-.111.363-.223.534-.35.059-.044.125-.075.184-.12.132-.103.247-.222.371-.334.099-.089.202-.173.297-.266.228-.225.436-.465.629-.714.036-.047.079-.088.115-.136.224-.304.422-.623.597-.955.049-.093.086-.192.132-.288.116-.244.223-.49.313-.745.045-.128.081-.258.119-.39a7.448 7.448 0 00.293-1.902c.003-.123.013-.245.01-.37a6.985 6.985 0 00-.109-1.155zM379.797 216.992l-7.704 1.802-.493-6.365 8.197 4.563zm-16.394 84.226l-31.384-24.505a7.518 7.518 0 00-7.624-.968l-60.844 26.482v-8.235c4.546-3.703 14.875-12.433 27.255-24.962l67.797-29.784 4.8 61.972zm-6.99-90.24l.96 12.392-42.353 18.607a303.601 303.601 0 0011.765-15.555l29.628-15.444zm-200.815 0l31.15 16.238c4.613 6.487 9.666 13.021 15.173 19.598a360.461 360.461 0 0014.231 15.984l-63.86-9.138 3.306-42.682zm-21.79 86.7l-95.224 50.336 4.638-25.574.119-.659 92.37-48.681-1.903 24.578zm3.276-42.29l-90.335 47.609 7.752-42.744 85.91-47.823-2.159 27.881-1.168 15.077zm2.578 161.349l7.115-91.869 88.77 134.922-95.885-43.053zm108.828-28.964l-46.293-72.958 46.293 5.543v67.415zm0-82.553l-60.229-7.211a7.516 7.516 0 00-7.238 11.489l67.467 106.328v36.294l-99.819-151.715 2.458-31.728 82.913 11.864c6.253 5.803 11.322 10.112 14.447 12.685v11.994zm7.997-24.917c-18.977-16.005-90.093-80.494-90.093-147.907-.001-49.678 40.415-90.094 90.093-90.094s90.094 40.416 90.094 90.094c0 67.413-71.117 131.903-90.094 147.907zm7.033 185.299v-33.357l22.466 23.269-22.466 10.088zm37.04-16.632l-37.04-38.364V318.63l62.772-27.32 38.681 30.203 7.375 95.224-71.788 32.233zm72.706-215.017l26.055-6.093 18.478 10.286 10.224 5.692-53.075 11.845-1.682-21.73zm14.131 182.445l-5.867-75.75 96.54 116.464-90.673-40.714zm-7.878-101.727l-2.042-26.37-.086-1.117 107.69 125.09 6.905 38.073-112.467-135.676z"/><path d="M256.487 85.95a7.515 7.515 0 100 15.03c17.323 0 31.416 14.093 31.416 31.416 0 17.322-14.093 31.416-31.416 31.416s-31.416-14.093-31.416-31.416c0-8.287 3.198-16.106 9.006-22.018a7.513 7.513 0 00-.094-10.626 7.513 7.513 0 00-10.627.094c-8.586 8.739-13.314 20.299-13.314 32.55 0 25.61 20.835 46.446 46.446 46.446s46.446-20.836 46.446-46.446c-.001-25.611-20.836-46.446-46.447-46.446z"/></symbol><symbol viewBox="0 0 511.997 511.997" id="medal" xmlns="http://www.w3.org/2000/svg"><path d="M335.99 160.828a10.002 10.002 0 00-8.074-6.804l-43.503-6.31-19.465-39.414a10.001 10.001 0 00-8.966-5.572h-.002a10 10 0 00-8.966 5.577l-19.443 39.424-43.5 6.333a9.998 9.998 0 00-5.537 17.058l31.486 30.675-7.419 43.327a10 10 0 0014.512 10.538l38.903-20.466 38.914 20.445a10 10 0 0014.507-10.545l-7.442-43.323 31.47-30.691a10.004 10.004 0 002.525-10.252zm-51.724 30.296a10.001 10.001 0 00-2.874 8.852l4.902 28.535-25.631-13.466a10 10 0 00-9.307.002l-25.624 13.48 4.887-28.538a10 10 0 00-2.878-8.851l-20.738-20.204 28.651-4.171a10.001 10.001 0 007.528-5.472l12.806-25.966 12.821 25.96a10 10 0 007.531 5.468l28.653 4.156-20.727 20.215z"/><path d="M480.738 439.367l-82.656-143.77c24.961-31.158 39.916-70.661 39.916-113.597 0-100.355-81.645-182-182-182s-182 81.645-182 182c0 42.936 14.954 82.439 39.916 113.597l-82.656 143.77a10.003 10.003 0 0010 14.896l64.513-8.663 24.754 60.201a10 10 0 0017.909 1.196l83.443-144.527c.013-.022.022-.045.035-.068 7.884 1.047 15.922 1.597 24.088 1.597s16.204-.55 24.088-1.597c.013.022.022.045.035.068l83.443 144.527a10.001 10.001 0 0017.909-1.196L406.23 445.6l64.513 8.663a9.996 9.996 0 009.633-4.337 10.015 10.015 0 00.362-10.559zm-339.454 40.012l-18.02-43.822 16.171-26.389c2.886-4.709 1.408-10.866-3.301-13.751s-10.866-1.408-13.751 3.301l-16.341 26.666-47.33 6.355 69.276-120.496c22.692 22.477 51.248 39.04 83.144 47.156l-69.848 120.98zM255.997 344c-89.327 0-162-72.673-162-162s72.673-162 162-162 162 72.673 162 162-72.673 162-162 162zm149.956 81.384l-16.341-26.666c-2.885-4.709-9.042-6.188-13.751-3.301-4.709 2.886-6.187 9.042-3.301 13.751l16.171 26.389-18.02 43.822-69.848-120.98c31.896-8.116 60.453-24.679 83.144-47.156l69.276 120.496-47.33-6.355z"/><path d="M255.997 52c-22.316 0-44.333 5.752-63.672 16.636-4.813 2.708-6.519 8.806-3.811 13.619s8.806 6.521 13.619 3.811C218.484 76.864 237.11 72 255.997 72c60.654 0 110 49.346 110 110 0 16.574-3.591 32.499-10.673 47.332-2.379 4.984-.268 10.953 4.716 13.333a9.96 9.96 0 004.302.978c3.732 0 7.315-2.101 9.031-5.694 8.376-17.545 12.624-36.369 12.624-55.949 0-71.682-58.317-130-130-130zm93.053 206.422c-3.963-3.846-10.294-3.751-14.14.212l-.222.228c-3.858 3.951-3.783 10.283.168 14.141a9.967 9.967 0 006.985 2.845 9.97 9.97 0 007.156-3.014l.264-.271c3.847-3.963 3.752-10.294-.211-14.141zm-26.464 23.923c-2.665-4.837-8.747-6.598-13.584-3.932-16.131 8.889-34.46 13.587-53.005 13.587-60.654 0-110-49.346-110-110 0-15.889 3.311-31.213 9.84-45.546 2.29-5.026.071-10.956-4.955-13.246-5.026-2.289-10.956-.071-13.246 4.955-7.724 16.954-11.64 35.067-11.64 53.837 0 71.682 58.318 130 130 130 21.911 0 43.578-5.557 62.658-16.071 4.837-2.666 6.598-8.747 3.932-13.584zM174.999 92.899c-4.041-3.765-10.369-3.539-14.133.501l-.222.239c-3.75 4.054-3.505 10.381.549 14.131a9.96 9.96 0 006.788 2.66 9.975 9.975 0 007.343-3.209l.176-.189c3.764-4.041 3.54-10.369-.501-14.133z"/></symbol><symbol viewBox="0 0 512.001 512.001" id="pay" xmlns="http://www.w3.org/2000/svg"><path d="M489.502 218.492h-7.496V115.988c0-26.192-21.309-47.501-47.5-47.501H228.527L89.564 28.783c-.04-.011-.081-.017-.121-.028-.041-.011-.08-.027-.121-.037-.084-.021-.167-.031-.25-.049-.129-.027-.258-.055-.387-.076-.117-.019-.232-.031-.349-.045a7.042 7.042 0 00-.406-.038c-.11-.006-.219-.007-.329-.009a7.276 7.276 0 00-.418.003c-.103.004-.206.014-.308.022a6.712 6.712 0 00-.427.046c-.096.014-.191.032-.286.049-.146.026-.29.054-.433.089-.089.022-.176.047-.264.072-.146.042-.29.085-.434.135-.081.029-.161.06-.242.092a7.358 7.358 0 00-.43.18c-.075.035-.148.073-.222.11a6.66 6.66 0 00-.416.224c-.071.041-.139.085-.209.129-.134.084-.266.17-.394.263-.067.048-.132.1-.198.151a7.277 7.277 0 00-.362.295c-.066.058-.129.119-.193.179-.11.104-.219.208-.323.318-.065.069-.126.141-.189.213a7.45 7.45 0 00-.278.334c-.064.083-.124.168-.185.253a6.913 6.913 0 00-.229.338c-.062.098-.119.2-.176.301a6.86 6.86 0 00-.183.338c-.056.112-.106.227-.157.342-.05.113-.099.226-.143.342-.046.122-.086.247-.127.373-.026.081-.058.157-.082.239-.012.041-.017.081-.028.121-.011.041-.027.08-.037.121l-8.576 34.312H47.505C21.366 68.485.094 89.708.008 115.828c-.001.054-.008.105-.008.158v260c0 4.14 3.37 7.5 7.5 7.5 4.14 0 7.5-3.36 7.5-7.5V150.579c8.504 7.996 19.938 12.91 32.505 12.91h387.001l.026-.001c17.908.014 32.474 14.588 32.474 32.501v52.504h-82.512l-.014.001a7.468 7.468 0 00-1.355.13c-.035.006-.069.009-.104.016a7.536 7.536 0 00-.579.145c-.042.012-.085.02-.126.033-.17.052-.335.114-.5.177-.063.024-.127.044-.19.07-.138.057-.271.124-.404.189-.088.042-.177.081-.263.126-.104.055-.202.118-.302.178-.111.066-.224.13-.332.202-.073.048-.14.103-.21.154-.128.092-.257.183-.379.284-.053.044-.102.093-.153.138-.131.114-.262.227-.386.351-.073.073-.139.153-.208.229-.097.105-.197.208-.289.32a7.573 7.573 0 00-.444.599l-39.998 60.001a7.383 7.383 0 00-.702 1.322c-.071.172-.128.347-.185.521-.017.053-.039.104-.055.157a7.46 7.46 0 00-.14.558c-.011.049-.025.097-.035.146a7.265 7.265 0 00-.076.506c-.009.072-.023.144-.03.217-.014.139-.017.277-.022.416-.005.106-.014.212-.014.319 0 .103.009.206.013.309.005.142.009.285.023.427.007.069.02.138.029.207.022.172.044.344.078.515.009.047.023.093.034.14.041.188.085.376.141.563.016.053.038.104.055.158.057.174.114.349.185.521.188.46.424.904.704 1.323l39.997 59.992.006.008c.161.239.337.467.523.686.061.072.126.139.189.207a7.508 7.508 0 001.091.979c.07.051.137.107.208.155.225.153.458.294.699.422.061.032.124.059.185.089a7.239 7.239 0 001.407.532c.081.021.161.043.243.063.203.047.409.083.618.113.076.011.151.026.227.035.258.029.52.045.786.047.021 0 .042.004.064.004l.014-.001h82.491V436c0 17.922-14.58 32.502-32.5 32.502h-387c-17.92 0-32.5-14.58-32.5-32.502 0-.039-.005-.077-.006-.116V405.99c0-4.13-3.36-7.5-7.5-7.5-4.13 0-7.5 3.37-7.5 7.5V436c0 .078.009.154.012.231.125 26.086 21.38 47.271 47.494 47.271h387c26.189 0 47.496-21.305 47.5-47.494v-52.516h7.496c12.404 0 22.496-10.092 22.496-22.496V240.988c-.003-12.404-10.095-22.496-22.499-22.496zM92.9 45.336l132.339 37.813.019.005 88.696 25.342H77.114L92.9 45.336zm374.105 116.058c-8.503-7.994-19.935-12.907-32.499-12.907l-.039.002H47.505c-17.921 0-32.501-14.58-32.501-32.501s14.58-32.501 32.501-32.501h20.398l-6.25 25.009H47.507a7.5 7.5 0 000 15h19.976l.032.002.023-.002h299.941l.028.002.024-.002h56.966a7.5 7.5 0 000-15h-55.943l-87.529-25.009h153.48c17.92 0 32.5 14.58 32.5 32.501v45.406zm29.993 199.598c0 4.133-3.363 7.496-7.496 7.496H388.508l-34.999-52.494 34.999-52.502h100.994c.105 0 .207-.012.311-.016a22.414 22.414 0 007.185-1.281v98.797zm-7.496-112.508c-.052 0-.103.007-.155.008h-7.341v-15h7.496c4.133 0 7.496 3.363 7.496 7.496s-3.363 7.496-7.496 7.496z"/><path d="M414.499 288.493c-15.164 0-27.5 12.337-27.5 27.501s12.336 27.5 27.5 27.5 27.5-12.336 27.5-27.5-12.336-27.501-27.5-27.501zm0 40.001c-6.893 0-12.5-5.607-12.5-12.5s5.607-12.501 12.5-12.501 12.5 5.608 12.5 12.501-5.607 12.5-12.5 12.5z"/></symbol><symbol viewBox="0 0 512 512" id="recommended" xmlns="http://www.w3.org/2000/svg"><path d="M392.327 226.071c0-16.209-13.186-29.394-29.395-29.394H308.91c13.125-14.753 21.703-31.552 23.36-46.623 1.012-9.205-1.832-18.342-7.805-25.069-5.459-6.149-12.924-9.576-21.02-9.651l-.281-.001c-7.831 0-15.181 3.016-20.728 8.512-5.548 5.497-8.618 12.82-8.654 20.635-.285 1.711-3.295 7.61-10.66 14.614-6.03 5.736-16.446 13.621-31.825 18.614-6.03 1.958-11.541 5.563-16.379 10.715a105.986 105.986 0 01-11.048 10.18 16.454 16.454 0 00-7.728-1.924h-51.307c-9.136 0-16.568 7.432-16.568 16.568v136.818c0 9.136 7.432 16.568 16.568 16.568h51.307c6.228 0 11.659-3.458 14.489-8.551h130.923c13.851 0 25.119-11.268 25.119-25.119 0-4.657-1.273-9.021-3.491-12.765 7.217-4.418 12.042-12.376 12.042-21.44 0-4.657-1.273-9.021-3.491-12.765 7.217-4.418 12.042-12.376 12.042-21.44a24.982 24.982 0 00-4.371-14.146c7.793-5.293 12.923-14.227 12.923-24.336zm-29.395 13.361h-4.276a8.017 8.017 0 000 16.034c5.01 0 9.086 4.076 9.086 9.086s-4.076 9.086-9.086 9.086h-8.551a8.017 8.017 0 000 16.034c5.01 0 9.086 4.076 9.086 9.086 0 5.01-4.076 9.086-9.086 9.086h-8.551a8.017 8.017 0 000 16.034c5.01 0 9.086 4.076 9.086 9.086 0 5.01-4.076 9.086-9.086 9.086H212.71v-77.495a8.017 8.017 0 00-16.034 0v85.511a.534.534 0 01-.534.534h-51.307a.534.534 0 01-.534-.534V213.244c0-.295.239-.534.534-.534h51.307c.295 0 .534.239.534.534v17.103a8.017 8.017 0 0016.034 0v-17.103c0-.389-.032-.77-.059-1.152a121.724 121.724 0 0013.954-12.695c2.967-3.161 6.211-5.327 9.642-6.44 18.87-6.126 31.569-15.99 38.898-23.186 9.186-9.019 14.669-18.421 14.669-25.152 0-3.556 1.387-6.889 3.906-9.385 2.55-2.527 5.927-3.862 9.576-3.867 4.494.042 7.47 2.341 9.177 4.263 2.926 3.295 4.366 8.033 3.857 12.672-1.751 15.929-14.49 35.619-32.454 50.161a8.018 8.018 0 005.044 14.247h74.01c7.368 0 13.361 5.993 13.361 13.361s-5.992 13.361-13.359 13.361z"/><path d="M170.489 316.306c-4.427 0-8.059 3.632-8.059 8.059s3.632 8.059 8.059 8.059 8.059-3.632 8.059-8.059c.001-4.426-3.631-8.059-8.059-8.059z"/><path d="M497.71 256l13.772-36.443a8.014 8.014 0 00-1.243-7.847l-24.359-30.404 1.836-38.915a8.017 8.017 0 00-3.606-7.078l-32.562-21.389-10.278-37.578a8.016 8.016 0 00-5.617-5.617l-37.578-10.278-21.389-32.561a8.027 8.027 0 00-7.078-3.606l-38.915 1.836-30.404-24.359a8.018 8.018 0 00-7.847-1.243L255.999 14.29 219.558.519a8.012 8.012 0 00-7.847 1.243l-30.404 24.359-38.915-1.836a8.001 8.001 0 00-7.078 3.606l-21.388 32.562-37.578 10.278a8.016 8.016 0 00-5.617 5.617l-10.278 37.578-32.562 21.388a8.016 8.016 0 00-3.606 7.078l1.836 38.915-24.359 30.404a8.018 8.018 0 00-1.243 7.847L14.29 256 .518 292.442a8.014 8.014 0 001.243 7.847l24.359 30.404-1.836 38.915a8.017 8.017 0 003.606 7.078l32.562 21.389 10.278 37.578a8.016 8.016 0 005.617 5.617l37.578 10.278 21.388 32.562a8.041 8.041 0 007.078 3.606l38.915-1.836 30.404 24.359a8.013 8.013 0 007.847 1.243L256 497.71l36.443 13.772a8.02 8.02 0 007.846-1.243l30.404-24.359 38.915 1.836a8.025 8.025 0 007.078-3.606l21.389-32.562 37.578-10.278a8.016 8.016 0 005.617-5.617l10.278-37.578 32.562-21.389a8.016 8.016 0 003.606-7.078l-1.836-38.915 24.359-30.404a8.018 8.018 0 001.243-7.847L497.71 256zm-16.069 2.834l13.226 34.999-23.394 29.199a8.014 8.014 0 00-1.752 5.39l1.764 37.373-31.271 20.541a8.017 8.017 0 00-3.332 4.586l-9.871 36.089-36.089 9.871a8.022 8.022 0 00-4.586 3.332l-20.541 31.271-37.373-1.764a8.023 8.023 0 00-5.39 1.752l-29.199 23.394-34.999-13.226a8.018 8.018 0 00-5.668 0l-34.999 13.226-29.199-23.394a8.03 8.03 0 00-5.39-1.752l-37.373 1.764-20.541-31.271a8.017 8.017 0 00-4.586-3.332l-36.089-9.871-9.871-36.089a8.022 8.022 0 00-3.332-4.586l-31.271-20.541 1.764-37.373a8.012 8.012 0 00-1.752-5.39l-23.394-29.199 13.227-34.999a8.019 8.019 0 000-5.668l-13.227-34.999 23.394-29.199a8.014 8.014 0 001.752-5.39l-1.764-37.373 31.271-20.541a8.017 8.017 0 003.332-4.586l9.871-36.089 36.089-9.871a8.022 8.022 0 004.586-3.332l20.541-31.271 37.373 1.764a8.022 8.022 0 005.39-1.752l29.199-23.394 34.999 13.227c1.827.69 3.842.69 5.668 0l34.999-13.227 29.199 23.394a8.01 8.01 0 005.39 1.752l37.373-1.764 20.541 31.271a8.017 8.017 0 004.586 3.332l36.089 9.871 9.871 36.089a8.022 8.022 0 003.332 4.586l31.271 20.541-1.764 37.373a8.012 8.012 0 001.752 5.39l23.394 29.199-13.227 34.999a8.024 8.024 0 00.001 5.668z"/><path d="M406.634 117.574a209.24 209.24 0 00-12.573-12.573 8.017 8.017 0 00-11.327.484 8.016 8.016 0 00.484 11.327c2.003 1.84 3.997 3.75 5.925 5.678a194.67 194.67 0 015.679 5.926 7.996 7.996 0 005.908 2.595c1.937 0 3.88-.698 5.419-2.111a8.015 8.015 0 00.485-11.326zm-41.042-34.449c-38.66-24.63-85.206-35.576-131.059-30.829-46.525 4.82-90.395 25.722-123.531 58.857-36.467 36.467-57.699 84.911-59.785 136.408-2.073 51.194 14.883 100.898 47.746 139.954a7.998 7.998 0 006.139 2.855 8.017 8.017 0 006.13-13.177c-30.281-35.989-45.905-81.795-43.995-128.982 1.922-47.462 21.49-92.11 55.101-125.72 30.54-30.541 70.972-49.806 113.846-54.247 42.275-4.38 85.171 5.709 120.792 28.403a8.016 8.016 0 0011.068-2.453 8.017 8.017 0 00-2.452-11.069zm62.919 62.918a8.017 8.017 0 10-13.522 8.614c22.694 35.622 32.781 78.52 28.403 120.792-4.441 42.874-23.706 83.305-54.246 113.847-33.611 33.61-78.259 53.179-125.72 55.101-47.179 1.918-92.994-13.713-128.982-43.993a8.016 8.016 0 00-11.295.973 8.016 8.016 0 00.973 11.295c36.921 31.065 83.351 47.917 131.566 47.916 2.789 0 5.589-.057 8.389-.17 51.497-2.085 99.94-23.317 136.408-59.784 33.136-33.136 54.039-77.007 58.857-123.532 4.748-45.856-6.201-92.4-30.831-131.059z"/></symbol><symbol viewBox="0 0 30 30" id="search" xmlns="http://www.w3.org/2000/svg"><path d="M13 3C7.489 3 3 7.489 3 13s4.489 10 10 10a9.947 9.947 0 006.322-2.264l5.971 5.971a1 1 0 101.414-1.414l-5.97-5.97A9.947 9.947 0 0023 13c0-5.511-4.489-10-10-10zm0 2c4.43 0 8 3.57 8 8s-3.57 8-8 8-8-3.57-8-8 3.57-8 8-8z"/></symbol><symbol viewBox="0 0 240.823 240.823" id="shevron-right" xmlns="http://www.w3.org/2000/svg"><path d="M183.189 111.816L74.892 3.555c-4.752-4.74-12.451-4.74-17.215 0-4.752 4.74-4.752 12.439 0 17.179l99.707 99.671-99.695 99.671c-4.752 4.74-4.752 12.439 0 17.191 4.752 4.74 12.463 4.74 17.215 0l108.297-108.261c4.68-4.691 4.68-12.511-.012-17.19z"/></symbol><symbol viewBox="0 0 24 24" id="star" xmlns="http://www.w3.org/2000/svg"><path d="M5.574 15.362l-1.267 7.767a.75.75 0 001.103.777L12 20.264l6.59 3.643a.75.75 0 001.103-.777l-1.267-7.767 5.36-5.494a.75.75 0 00-.423-1.265l-7.378-1.127L12.678.433c-.247-.526-1.11-.526-1.357 0L8.015 7.476.637 8.603a.75.75 0 00-.423 1.265z"/></symbol><symbol viewBox="0 0 512 512" id="tag" xmlns="http://www.w3.org/2000/svg"><path d="M512 34.88c.039-9.349-3.569-18.126-10.159-24.716S486.457-.028 477.126.006c-9.322.039-18.098 3.702-24.711 10.314-2.8 2.8-7.893 8.848-10.679 12.205a8.294 8.294 0 001.083 11.68 8.294 8.294 0 0011.68-1.083c4.364-5.256 7.971-9.395 9.646-11.071 3.498-3.497 8.132-5.435 13.05-5.456h.079c4.862 0 9.419 1.88 12.837 5.299 3.437 3.437 5.32 8.024 5.299 12.916-.021 4.917-1.959 9.551-5.456 13.05-3.131 3.131-13.893 11.668-29.312 22.439-9.121-15.594-26.037-26.099-45.37-26.099H293.808c-16.396 0-31.81 6.385-43.405 17.978L7.613 304.971C2.704 309.88 0 316.407 0 323.349s2.704 13.47 7.613 18.378L170.28 504.394c5.068 5.067 11.722 7.6 18.378 7.6 6.656 0 13.312-2.534 18.378-7.6l242.792-242.791c11.593-11.594 17.978-27.008 17.978-43.405V96.735c0-3.585-.363-7.085-1.051-10.47 17.551-12.077 30.435-22.18 34.929-26.674 6.614-6.612 10.277-15.388 10.316-24.711zm-60.783 183.318c0 11.965-4.66 23.214-13.119 31.673L195.306 492.664c-3.664 3.665-9.63 3.665-13.295 0L19.344 329.997c-1.775-1.775-2.754-4.136-2.754-6.648s.978-4.872 2.754-6.647L262.135 73.911c8.461-8.46 19.709-13.119 31.673-13.119h121.463c13.64 0 25.53 7.637 31.618 18.859a672.558 672.558 0 01-32.408 20.171 35.31 35.31 0 00-1.119-1.177c-13.584-13.584-35.686-13.584-49.27 0-13.584 13.584-13.584 35.686 0 49.27 6.792 6.792 15.714 10.187 24.635 10.187 8.921 0 17.843-3.395 24.635-10.187 9.067-9.067 12.072-21.926 9.036-33.517a696.517 696.517 0 0028.815-17.743l.003.081v121.462zm-69.898-91.191a8.294 8.294 0 0011.139 3.682 519.856 519.856 0 0014.504-7.596c.048 4.735-1.722 9.485-5.328 13.091-7.116 7.115-18.692 7.115-25.808 0-7.115-7.116-7.115-18.692 0-25.808a18.191 18.191 0 0112.904-5.336c3.7 0 7.389 1.134 10.536 3.363a509.19 509.19 0 01-14.263 7.468 8.29 8.29 0 00-3.684 11.136z"/><path d="M247.162 168.962a8.295 8.295 0 00-8.295 8.295v175.179a8.295 8.295 0 0016.59 0V177.257a8.295 8.295 0 00-8.295-8.295zm-37.931 71.251c-13.583-13.586-35.686-13.585-49.268-.001-13.584 13.584-13.584 35.686 0 49.27 6.793 6.793 15.713 10.188 24.635 10.187 8.92 0 17.843-3.397 24.634-10.187 6.581-6.581 10.205-15.329 10.205-24.635s-3.625-18.055-10.206-24.634zm-11.73 37.537c-7.116 7.116-18.692 7.115-25.807 0-7.115-7.116-7.115-18.692 0-25.808 3.558-3.558 8.231-5.336 12.904-5.336s9.346 1.778 12.904 5.336a18.128 18.128 0 015.345 12.904 18.133 18.133 0 01-5.346 12.904zm136.859-37.538c-13.584-13.585-35.687-13.584-49.268 0-13.584 13.584-13.584 35.686 0 49.27 6.792 6.792 15.713 10.187 24.635 10.187 8.921 0 17.843-3.395 24.634-10.187 13.583-13.584 13.583-35.686-.001-49.27zm-11.731 37.538c-7.116 7.116-18.692 7.115-25.807 0-7.115-7.116-7.115-18.692 0-25.808 3.558-3.558 8.231-5.336 12.904-5.336s9.346 1.778 12.904 5.336c7.115 7.116 7.115 18.692-.001 25.808z"/></symbol><symbol viewBox="0 0 432 432" id="user" xmlns="http://www.w3.org/2000/svg"><path d="M395.2 272c-21.2-31.2-50.4-56.8-84.4-73.6 10.8-17.2 17.2-38 17.2-60C328 108 315.6 80 295.2 60c-20.4-20.4-48.4-32.8-79.2-32.8-30.8 0-58.8 12.4-79.2 32.8-20.4 20-32.8 48-32.8 79.2 0 22 6.4 42.4 17.2 60-34.4 16.8-63.2 42-84.4 73.6C13.6 307.2 0 348.8 0 393.6c0 6 5.6 11.2 12 11.2h408c6.8 0 12-5.2 12-12 0-44.8-13.6-86-36.8-120.8zM153.6 76.8c16-16 38-25.6 62.4-25.6s46.4 10 62.4 25.6c16 16 25.6 38 25.6 62.4 0 22.8-8.8 43.6-23.2 59.6-1.2 1.2-2 2.4-3.2 3.6s-2 2-3.2 2.8c-1.2 1.2-2.4 2-3.6 2.8-1.2.8-2.4 2-3.6 2.8l-3.6 2.4c-1.2.8-2.4 1.6-4 2.4-1.2.8-2.4 1.6-4 2-1.2.8-2.8 1.6-4.4 2-1.2.4-2.4 1.2-4 1.6-1.6.4-2.8 1.2-4.4 1.6-1.6.4-2.8.8-4.4 1.2-1.6.4-2.8.8-4.4 1.2-1.6.4-3.6.8-5.6.8-1.2 0-2.4.4-3.6.4-3.2.4-6.4.4-9.2.4-3.2 0-6.4 0-9.2-.4-1.2 0-2.4-.4-3.6-.4-2-.4-3.6-.4-5.6-.8-1.6-.4-2.8-.8-4.4-1.2-1.6-.4-2.8-.8-4.4-1.2s-3.2-1.2-4.4-1.6c-1.2-.4-2.4-.8-3.6-1.6-1.6-.8-2.8-1.2-4.4-2-1.2-.8-2.8-1.2-4-2-1.2-.8-2.8-1.6-4-2.4l-3.6-2.4c-1.2-.8-2.4-1.6-3.6-2.8-1.2-.8-2.4-2-3.6-2.8-1.2-.8-2.4-2-3.2-2.8-1.2-1.2-2.4-2.4-3.2-3.6-14.4-15.6-23.2-36.4-23.2-59.6.4-24.4 10.4-46.4 26-62.4zm62.4 304H24.4c2-34.8 13.6-67.6 32.4-95.2 19.6-29.2 47.6-52.8 80-67.6 6.8 6.8 14.8 12.8 23.2 18 2.8 1.6 5.6 3.2 8.8 4.4 1.6.8 3.6 1.6 5.2 2.4h.4c1.6.8 3.2 1.2 4.8 2 .4 0 .4 0 .8.4 1.6.4 3.2 1.2 4.8 1.6.4 0 .8.4 1.2.4 1.6.4 2.8.8 4.4 1.2.4 0 .8.4 1.2.4 1.6.4 2.8.4 4.4.8.4 0 1.2 0 1.6.4 1.6.4 2.8.4 4.4.4.4 0 1.2 0 1.6.4 1.6 0 2.8.4 4.4.4h15.2c1.6 0 2.8-.4 4.4-.4.4 0 1.2 0 1.6-.4 1.6 0 2.8-.4 4.4-.4.4 0 1.2 0 1.6-.4 1.6-.4 2.8-.4 4.4-.8.4 0 .8-.4 1.2-.4 1.6-.4 3.2-.8 4.4-1.2.4 0 .8 0 1.2-.4 1.6-.4 3.2-.8 4.8-1.6.4 0 .4 0 .8-.4 1.6-.4 3.2-1.2 4.8-2h.4c1.6-.8 3.6-1.6 5.2-2.4 3.2-1.2 6-2.8 8.8-4.4 8.4-4.8 16.4-10.8 23.2-18 32.4 14.8 60 38.4 80 67.6 18.4 27.6 30 60 32.4 95.2H216z"/></symbol></svg>