<?xml version="1.0" encoding="UTF-8"?> <svg xmlns="http://www.w3.org/2000/svg" width="94" height="62" viewBox="0 0 94 62" fill="none"> <path d="M4 0C1.8358 0 0 1.83585 0 4V58C0 60.1641 1.8358 62 4 62H90C92.1642 62 94 60.1641 94 58V4C94 1.83585 92.1642 0 90 0H4ZM9.7812 6H84.2188L47 38.9687L9.7812 6ZM6 10.6562L26.7188 29.0312L6 51.3125V10.6562ZM88 10.6562V51.3125L67.2812 29.0312L88 10.6562ZM31.2188 33L45 45.2187C45.5501 45.7106 46.2621 45.9825 47 45.9825C47.7379 45.9825 48.4499 45.7106 49 45.2187L62.7812 33L84.1875 56H9.8125L31.2188 33Z" fill="#98D023"></path> </svg> 