<?xml version="1.0" encoding="UTF-8"?> <!-- Creator: CorelDRAW 2020 (64-Bit) --> <svg xmlns="http://www.w3.org/2000/svg" xmlns:xlink="http://www.w3.org/1999/xlink" xmlns:xodm="http://www.corel.com/coreldraw/odm/2003" xml:space="preserve" width="50.985mm" height="19.086mm" style="shape-rendering:geometricPrecision; text-rendering:geometricPrecision; image-rendering:optimizeQuality; fill-rule:evenodd; clip-rule:evenodd" viewBox="0 0 63865.91 23907.91"> <defs> <style type="text/css"> <![CDATA[ .fil1 {fill:#8ACA04} .fil2 {fill:white} .fil0 {fill:#8ACA04;fill-rule:nonzero} ]]> </style> </defs> <g id="Слой_x0020_1"> <metadata id="CorelCorpID_0Corel-Layer"></metadata> <path class="fil0" d="M28401.51 20869.63l-1442.54 0 903.53 -7423.65 1616.78 0 1780.63 5426.44 1775.37 -5426.44 1616.78 0 908.92 7428.91 -1447.8 0 -538.89 -5135.7 -1685.55 5130.44 -1241.62 0 -1685.55 -5130.44 -560.06 5130.44zm13853.96 0l-5378.84 0 0 -7423.65 5299.55 0 0 1310.39 -3867.65 0 0 1722.51 3090.89 0 0 1236.36 -3090.89 0 0 1844.01 3946.95 0 0 1310.39zm7133.04 0l-1616.78 0 -1162.45 -2504.53c-155.08,7.14 -273.08,10.65 -354.12,10.65l-1241.62 0 0 2493.88 -1431.89 0 0 -7423.65 3064.59 0c503.69,0 949.38,102.09 1335.06,308.15 385.69,206.06 685.07,495.04 898.14,866.58 213.2,371.66 318.8,801.44 318.8,1287.46 0,489.66 -107.35,908.79 -322.3,1259.28 -214.83,350.61 -512.46,626.95 -892.88,827.87l1405.46 2874.31zm-4374.97 -3756.8l1505.93 0c239.5,0 452.58,-50.98 639.22,-153.2 186.77,-102.22 331.2,-244.77 433.29,-426.15 102.22,-181.51 153.2,-387.57 153.2,-620.06 0,-239.5 -52.74,-447.32 -158.46,-623.44 -105.72,-176.12 -250.03,-311.78 -435.04,-405.1 -184.89,-93.32 -394.46,-139.04 -626.95,-139.04l-1511.19 0 0 2366.99zm8829.24 3883.56c-707.99,0 -1354.48,-170.86 -1940.84,-512.46 -586.49,-341.72 -1049.71,-806.7 -1389.68,-1394.94 -339.97,-588.24 -510.83,-1234.6 -510.83,-1939.09 0,-708.12 170.86,-1354.48 510.83,-1939.21 339.97,-584.61 803.19,-1047.83 1389.68,-1387.8 586.36,-339.97 1232.85,-508.95 1940.84,-508.95 479.01,0 933.47,79.17 1361.37,239.5 428.03,160.21 810.21,385.69 1148.42,674.55l-808.45 1083.16c-228.98,-186.77 -491.29,-338.21 -789.04,-452.7 -297.63,-114.49 -602.27,-170.86 -912.3,-170.86 -426.27,0 -822.48,109.23 -1188.88,327.69 -366.27,218.34 -656.89,515.96 -873.47,892.88 -216.71,376.92 -325.94,792.55 -325.94,1247 0,454.46 109.23,870.08 325.94,1247 216.58,376.79 507.19,674.55 873.47,892.88 366.4,218.46 762.61,327.57 1188.88,327.57 320.55,0 616.42,-52.74 887.62,-156.71 271.32,-103.97 547.78,-265.94 829.62,-487.9l792.55 1093.81c-341.72,292.37 -725.66,519.47 -1151.93,681.56 -426.27,162.09 -878.85,243.01 -1357.86,243.01zm5114.66 -126.77l-1431.89 0 0 -7423.65 1431.89 0 0 2895.48 3476.58 0 0 -2895.48 1431.89 0 0 7423.65 -1431.89 0 0 -3159.66 -3476.58 0 0 3159.66z"></path> <ellipse class="fil1" cx="11953.93" cy="11953.94" rx="11953.96" ry="11953.94"></ellipse> <path class="fil2" d="M34003.95 10263.39l-1515.32 0 -505.82 -1379.53 -2825.33 0 -500.56 1379.53 -1698.21 0c972.93,-2477.35 1940.72,-4957.83 2921.16,-7431.92l1391.31 0c964.16,2479.1 1937.84,4955.82 2910.39,7431.92l-177.62 0zm-3433.49 -5249.44l-890.25 2446.78 1784.76 0 -894.51 -2446.78zm8435.91 1726.39l1434.52 0 0 2785.87 -25.68 20.17c-89.94,70.15 -181.26,135.79 -275.08,196.92 -93.45,60.75 -190.78,117.75 -292.62,171.11 -98.58,51.73 -199.3,99.21 -301.26,141.92 -104.35,43.72 -211.32,83.68 -320.18,119.25 -108.23,35.2 -218.96,66.64 -332.2,93.95 -111.49,26.93 -223.97,49.48 -336.21,67.27 -114.24,18.04 -228.36,31.82 -340.97,40.71 -115.12,9.14 -230.24,13.65 -344.6,13.65 -174.87,0 -347.61,-10.9 -517.72,-32.57 -169.36,-21.42 -334.96,-53.86 -495.8,-96.58 -161.21,-42.97 -319.17,-96.83 -473.62,-161.47 -153.57,-64.26 -304.39,-139.54 -450.95,-225.6 -146.43,-85.68 -285.35,-179.38 -416,-280.09 -130.9,-101.09 -254.54,-209.94 -369.9,-326.31 -115.49,-116.25 -223.72,-240.76 -324.06,-372.91 -100.09,-131.78 -193.03,-271.57 -277.59,-418.76 -84.55,-146.81 -159.21,-298 -222.97,-452.58 -64.14,-155.33 -117.62,-313.41 -159.59,-473.62 -42.34,-160.96 -74.66,-326.69 -95.95,-495.92 -21.42,-169.48 -32.19,-341.22 -32.19,-514.96 0,-173.74 10.77,-345.35 32.19,-514.46 21.29,-168.98 53.49,-334.08 95.7,-494.04 42.34,-160.59 95.83,-318.42 159.84,-472.5 63.88,-154.2 138.42,-304.39 222.97,-449.82 84.43,-145.43 177.12,-283.97 277.59,-414.87 100.46,-131.28 208.69,-254.91 324.06,-370.16 115.37,-115.49 239.25,-223.97 370.03,-324.18 131.28,-100.59 270.19,-193.66 416.13,-278.71 145.68,-84.8 296.25,-159.71 450.7,-223.72 154.45,-64.26 312.53,-117.87 473.62,-160.21 323.43,-85.43 661.39,-128.4 1013.51,-128.4 117,0 233.49,5.01 349.24,15.16 114.87,9.77 228.73,24.68 340.84,44.59 110.61,19.54 222.09,44.59 333.58,75.03 109.36,29.69 218.34,65.01 326.44,105.22 107.6,40.08 211.95,84.05 312.03,131.53 100.71,47.6 199.17,100.09 294.87,156.33 96.95,57 190.03,117.5 278.46,180.88 88.69,63.51 175.87,132.28 260.42,205.18l86.56 74.53 -958.9 1242.49 -96.33 -79.92c-53.24,-43.97 -107.98,-85.93 -163.34,-125.01 -56.24,-39.46 -114.37,-77.41 -173.87,-112.61 -61.13,-36.2 -123.13,-69.9 -184.64,-100.09 -62.63,-30.69 -127.52,-59.75 -193.28,-85.81 -66.14,-26.31 -132.15,-49.35 -197.67,-68.52 -66.52,-19.42 -133.91,-35.83 -201.93,-48.85 -67.89,-13.15 -136.41,-23.05 -204.18,-29.44 -66.64,-6.26 -136.16,-9.39 -208.31,-9.39 -195.91,0 -384.44,24.93 -564.69,74.53 -181.01,49.86 -355.62,124.89 -522.98,224.6 -83.8,49.98 -164.1,104.97 -239.88,164.35 -75.41,59 -147.06,123.13 -213.83,191.03 -66.77,67.89 -129.65,141.05 -188.4,218.71 -58.25,76.66 -112.74,159.09 -163.47,246.52 -50.61,87.31 -94.7,176.12 -131.65,265.56 -37.2,90.06 -68.77,183.51 -93.57,278.96 -24.8,94.82 -43.97,192.53 -56.24,292.62 -12.4,99.46 -18.66,202.3 -18.66,308.02 0,209.94 25.05,410.99 75.03,603.4 49.98,192.78 125.39,378.05 225.48,554.67 49.86,88.44 104.72,172.61 163.72,252.41 58.62,78.92 121.88,153.57 189.4,223.85 66.89,69.52 139.04,135.16 214.95,195.66 75.66,60.88 156.33,117 240.88,168.48 83.68,50.73 169.86,95.7 257.67,134.53 86.93,37.96 175.75,70.4 266.19,95.95 90.19,25.55 181.88,44.84 274.95,57.62 92.44,12.78 187.65,19.17 285.1,19.17 98.83,0 194.16,-4.76 285.6,-13.78 92.57,-9.27 184.76,-23.55 275.21,-42.21 83.43,-17.04 166.85,-38.96 249.65,-64.89 68.52,-21.55 136.04,-45.97 202.43,-72.9l0 -1916.54 121.38 0zm4072.34 3523.05l-1505.93 0 0 -7421.77 1627.31 0 0 7421.77 -121.38 0zm3091.27 0l-1505.93 0 0 -7421.77 5102.01 0 0 1494.65 -3474.7 0 0 1801.17 2708.21 0 0 1428.14 -2708.21 0 0 2697.81 -121.38 0zm7880.87 0l-1506.05 0 0 -5886.29 -2105.19 0 0 -1535.49 5842.94 0 0 1535.49 -2110.32 0 0 5886.29 -121.38 0zm8589.61 0l-1515.45 0 -505.82 -1379.53 -2825.21 0 -500.68 1379.53 -1698.33 0c976.81,-2476.1 1948.48,-4954.32 2921.03,-7431.92l1391.31 0c972.17,2476.35 1941.72,4954.07 2910.64,7431.92l-177.5 0zm-3433.74 -5249.32l-890 2446.66 1784.64 0 -894.64 -2446.66z"></path> </g> </svg> 